<mxfile host="Electron" agent="Mozilla/5.0 (Windows NT 10.0; Win64; x64) AppleWebKit/537.36 (KHTML, like Gecko) draw.io/24.7.8 Chrome/128.0.6613.36 Electron/32.0.1 Safari/537.36" version="24.7.8">
  <diagram name="Сторінка-1" id="sQk6qviwRcaP8smQdIaI">
    <mxGraphModel dx="1781" dy="657" grid="1" gridSize="10" guides="1" tooltips="1" connect="1" arrows="1" fold="1" page="1" pageScale="1" pageWidth="827" pageHeight="1169" math="0" shadow="0">
      <root>
        <mxCell id="0" />
        <mxCell id="1" parent="0" />
        <mxCell id="VhQ2WMgpOjCBO5-XnIku-3" value="" style="edgeStyle=orthogonalEdgeStyle;rounded=0;orthogonalLoop=1;jettySize=auto;html=1;" parent="1" source="VhQ2WMgpOjCBO5-XnIku-1" target="VhQ2WMgpOjCBO5-XnIku-2" edge="1">
          <mxGeometry relative="1" as="geometry" />
        </mxCell>
        <mxCell id="VhQ2WMgpOjCBO5-XnIku-1" value="&lt;font style=&quot;font-size: 20px;&quot;&gt;start&lt;/font&gt;" style="strokeWidth=2;html=1;shape=mxgraph.flowchart.start_1;whiteSpace=wrap;" parent="1" vertex="1">
          <mxGeometry x="80" y="40" width="100" height="60" as="geometry" />
        </mxCell>
        <mxCell id="VhQ2WMgpOjCBO5-XnIku-5" value="" style="edgeStyle=orthogonalEdgeStyle;rounded=0;orthogonalLoop=1;jettySize=auto;html=1;" parent="1" source="VhQ2WMgpOjCBO5-XnIku-2" target="VhQ2WMgpOjCBO5-XnIku-4" edge="1">
          <mxGeometry relative="1" as="geometry" />
        </mxCell>
        <mxCell id="VhQ2WMgpOjCBO5-XnIku-2" value="&lt;font style=&quot;font-size: 20px;&quot;&gt;int n,m,k&lt;/font&gt;" style="whiteSpace=wrap;html=1;strokeWidth=2;" parent="1" vertex="1">
          <mxGeometry x="70" y="180" width="120" height="60" as="geometry" />
        </mxCell>
        <mxCell id="VhQ2WMgpOjCBO5-XnIku-7" value="" style="edgeStyle=orthogonalEdgeStyle;rounded=0;orthogonalLoop=1;jettySize=auto;html=1;" parent="1" source="VhQ2WMgpOjCBO5-XnIku-4" target="VhQ2WMgpOjCBO5-XnIku-6" edge="1">
          <mxGeometry relative="1" as="geometry" />
        </mxCell>
        <mxCell id="VhQ2WMgpOjCBO5-XnIku-4" value="&lt;span style=&quot;font-size: 20px;&quot;&gt;cin &amp;gt;&amp;gt; n,m,k&lt;/span&gt;" style="shape=parallelogram;perimeter=parallelogramPerimeter;whiteSpace=wrap;html=1;fixedSize=1;strokeWidth=2;" parent="1" vertex="1">
          <mxGeometry x="40" y="320" width="180" height="60" as="geometry" />
        </mxCell>
        <mxCell id="VhQ2WMgpOjCBO5-XnIku-9" value="" style="edgeStyle=orthogonalEdgeStyle;rounded=0;orthogonalLoop=1;jettySize=auto;html=1;" parent="1" source="VhQ2WMgpOjCBO5-XnIku-6" target="VhQ2WMgpOjCBO5-XnIku-8" edge="1">
          <mxGeometry relative="1" as="geometry" />
        </mxCell>
        <mxCell id="VhQ2WMgpOjCBO5-XnIku-6" value="&lt;font style=&quot;font-size: 20px;&quot;&gt;int s&lt;/font&gt;" style="whiteSpace=wrap;html=1;strokeWidth=2;" parent="1" vertex="1">
          <mxGeometry x="70" y="470" width="120" height="60" as="geometry" />
        </mxCell>
        <mxCell id="VhQ2WMgpOjCBO5-XnIku-11" value="" style="edgeStyle=orthogonalEdgeStyle;rounded=0;orthogonalLoop=1;jettySize=auto;html=1;" parent="1" source="VhQ2WMgpOjCBO5-XnIku-8" target="VhQ2WMgpOjCBO5-XnIku-10" edge="1">
          <mxGeometry relative="1" as="geometry" />
        </mxCell>
        <mxCell id="VhQ2WMgpOjCBO5-XnIku-8" value="&lt;font style=&quot;font-size: 20px;&quot;&gt;int i; i&amp;lt;n&lt;/font&gt;" style="rhombus;whiteSpace=wrap;html=1;strokeWidth=2;" parent="1" vertex="1">
          <mxGeometry x="65" y="600" width="130" height="80" as="geometry" />
        </mxCell>
        <mxCell id="VhQ2WMgpOjCBO5-XnIku-13" value="" style="edgeStyle=orthogonalEdgeStyle;rounded=0;orthogonalLoop=1;jettySize=auto;html=1;" parent="1" source="VhQ2WMgpOjCBO5-XnIku-10" target="VhQ2WMgpOjCBO5-XnIku-12" edge="1">
          <mxGeometry relative="1" as="geometry" />
        </mxCell>
        <mxCell id="VhQ2WMgpOjCBO5-XnIku-10" value="&lt;font style=&quot;font-size: 20px;&quot;&gt;string si&lt;/font&gt;" style="whiteSpace=wrap;html=1;strokeWidth=2;" parent="1" vertex="1">
          <mxGeometry x="70" y="770" width="120" height="60" as="geometry" />
        </mxCell>
        <mxCell id="VhQ2WMgpOjCBO5-XnIku-17" value="" style="edgeStyle=orthogonalEdgeStyle;rounded=0;orthogonalLoop=1;jettySize=auto;html=1;" parent="1" source="VhQ2WMgpOjCBO5-XnIku-12" target="VhQ2WMgpOjCBO5-XnIku-16" edge="1">
          <mxGeometry relative="1" as="geometry" />
        </mxCell>
        <mxCell id="VhQ2WMgpOjCBO5-XnIku-12" value="&lt;font style=&quot;font-size: 20px;&quot;&gt;cin&amp;gt;&amp;gt;si&lt;/font&gt;" style="shape=parallelogram;perimeter=parallelogramPerimeter;whiteSpace=wrap;html=1;fixedSize=1;strokeWidth=2;" parent="1" vertex="1">
          <mxGeometry x="70" y="910" width="120" height="60" as="geometry" />
        </mxCell>
        <mxCell id="VhQ2WMgpOjCBO5-XnIku-19" style="edgeStyle=orthogonalEdgeStyle;rounded=0;orthogonalLoop=1;jettySize=auto;html=1;exitX=0.5;exitY=1;exitDx=0;exitDy=0;entryX=0.5;entryY=0;entryDx=0;entryDy=0;" parent="1" source="VhQ2WMgpOjCBO5-XnIku-16" target="VhQ2WMgpOjCBO5-XnIku-18" edge="1">
          <mxGeometry relative="1" as="geometry" />
        </mxCell>
        <mxCell id="VhQ2WMgpOjCBO5-XnIku-16" value="&lt;font style=&quot;font-size: 20px;&quot;&gt;int ni&lt;/font&gt;" style="whiteSpace=wrap;html=1;strokeWidth=2;" parent="1" vertex="1">
          <mxGeometry x="70" y="1050" width="120" height="60" as="geometry" />
        </mxCell>
        <mxCell id="VhQ2WMgpOjCBO5-XnIku-23" value="" style="edgeStyle=orthogonalEdgeStyle;rounded=0;orthogonalLoop=1;jettySize=auto;html=1;" parent="1" source="VhQ2WMgpOjCBO5-XnIku-18" target="VhQ2WMgpOjCBO5-XnIku-22" edge="1">
          <mxGeometry relative="1" as="geometry" />
        </mxCell>
        <mxCell id="VhQ2WMgpOjCBO5-XnIku-33" value="" style="edgeStyle=orthogonalEdgeStyle;rounded=0;orthogonalLoop=1;jettySize=auto;html=1;" parent="1" source="VhQ2WMgpOjCBO5-XnIku-18" target="VhQ2WMgpOjCBO5-XnIku-32" edge="1">
          <mxGeometry relative="1" as="geometry" />
        </mxCell>
        <mxCell id="VhQ2WMgpOjCBO5-XnIku-18" value="&lt;font style=&quot;font-size: 20px;&quot;&gt;int j; j&amp;lt;m&lt;/font&gt;" style="rhombus;whiteSpace=wrap;html=1;strokeWidth=2;fontStyle=0" parent="1" vertex="1">
          <mxGeometry x="65" y="1191" width="130" height="90" as="geometry" />
        </mxCell>
        <mxCell id="VhQ2WMgpOjCBO5-XnIku-25" value="" style="edgeStyle=orthogonalEdgeStyle;rounded=0;orthogonalLoop=1;jettySize=auto;html=1;" parent="1" source="VhQ2WMgpOjCBO5-XnIku-22" target="VhQ2WMgpOjCBO5-XnIku-24" edge="1">
          <mxGeometry relative="1" as="geometry" />
        </mxCell>
        <mxCell id="VhQ2WMgpOjCBO5-XnIku-29" style="edgeStyle=orthogonalEdgeStyle;rounded=0;orthogonalLoop=1;jettySize=auto;html=1;" parent="1" source="VhQ2WMgpOjCBO5-XnIku-22" edge="1">
          <mxGeometry relative="1" as="geometry">
            <mxPoint x="20" y="1406" as="targetPoint" />
          </mxGeometry>
        </mxCell>
        <mxCell id="VhQ2WMgpOjCBO5-XnIku-22" value="&lt;span style=&quot;font-size: 20px;&quot;&gt;si[j]==&#39;*&#39;&lt;/span&gt;" style="rhombus;whiteSpace=wrap;html=1;strokeWidth=2;fontStyle=0" parent="1" vertex="1">
          <mxGeometry x="65" y="1361" width="130" height="90" as="geometry" />
        </mxCell>
        <mxCell id="VhQ2WMgpOjCBO5-XnIku-27" style="edgeStyle=orthogonalEdgeStyle;rounded=0;orthogonalLoop=1;jettySize=auto;html=1;exitX=0;exitY=0.5;exitDx=0;exitDy=0;" parent="1" source="VhQ2WMgpOjCBO5-XnIku-24" target="VhQ2WMgpOjCBO5-XnIku-28" edge="1">
          <mxGeometry relative="1" as="geometry">
            <mxPoint x="10" y="1330" as="targetPoint" />
          </mxGeometry>
        </mxCell>
        <mxCell id="VhQ2WMgpOjCBO5-XnIku-24" value="&lt;font style=&quot;font-size: 20px;&quot;&gt;ni++&lt;/font&gt;" style="whiteSpace=wrap;html=1;strokeWidth=2;fontStyle=0;" parent="1" vertex="1">
          <mxGeometry x="70" y="1546" width="120" height="60" as="geometry" />
        </mxCell>
        <mxCell id="VhQ2WMgpOjCBO5-XnIku-31" style="edgeStyle=orthogonalEdgeStyle;rounded=0;orthogonalLoop=1;jettySize=auto;html=1;" parent="1" source="VhQ2WMgpOjCBO5-XnIku-28" edge="1">
          <mxGeometry relative="1" as="geometry">
            <mxPoint x="130" y="1130" as="targetPoint" />
            <Array as="points">
              <mxPoint x="10" y="1130" />
            </Array>
          </mxGeometry>
        </mxCell>
        <mxCell id="VhQ2WMgpOjCBO5-XnIku-28" value="&lt;font style=&quot;font-size: 20px;&quot;&gt;j++&lt;/font&gt;" style="rounded=0;whiteSpace=wrap;html=1;" parent="1" vertex="1">
          <mxGeometry x="-50" y="1300" width="120" height="60" as="geometry" />
        </mxCell>
        <mxCell id="VhQ2WMgpOjCBO5-XnIku-35" value="" style="edgeStyle=orthogonalEdgeStyle;rounded=0;orthogonalLoop=1;jettySize=auto;html=1;" parent="1" source="VhQ2WMgpOjCBO5-XnIku-32" target="VhQ2WMgpOjCBO5-XnIku-34" edge="1">
          <mxGeometry relative="1" as="geometry" />
        </mxCell>
        <mxCell id="VhQ2WMgpOjCBO5-XnIku-37" value="" style="edgeStyle=orthogonalEdgeStyle;rounded=0;orthogonalLoop=1;jettySize=auto;html=1;" parent="1" source="VhQ2WMgpOjCBO5-XnIku-32" target="VhQ2WMgpOjCBO5-XnIku-36" edge="1">
          <mxGeometry relative="1" as="geometry" />
        </mxCell>
        <mxCell id="VhQ2WMgpOjCBO5-XnIku-32" value="&lt;span style=&quot;font-size: 20px;&quot;&gt;ni%k != 0&lt;/span&gt;" style="rhombus;whiteSpace=wrap;html=1;strokeWidth=2;fontStyle=0" parent="1" vertex="1">
          <mxGeometry x="310" y="1300" width="130" height="90" as="geometry" />
        </mxCell>
        <mxCell id="VhQ2WMgpOjCBO5-XnIku-40" style="edgeStyle=orthogonalEdgeStyle;rounded=0;orthogonalLoop=1;jettySize=auto;html=1;exitX=0.5;exitY=1;exitDx=0;exitDy=0;" parent="1" source="VhQ2WMgpOjCBO5-XnIku-34" edge="1">
          <mxGeometry relative="1" as="geometry">
            <mxPoint x="500" y="1631" as="targetPoint" />
          </mxGeometry>
        </mxCell>
        <mxCell id="VhQ2WMgpOjCBO5-XnIku-34" value="&lt;font style=&quot;font-size: 20px;&quot;&gt;s+= ni/k+1&lt;/font&gt;" style="whiteSpace=wrap;html=1;strokeWidth=2;fontStyle=0;" parent="1" vertex="1">
          <mxGeometry x="315" y="1485" width="120" height="60" as="geometry" />
        </mxCell>
        <mxCell id="VhQ2WMgpOjCBO5-XnIku-42" style="edgeStyle=orthogonalEdgeStyle;rounded=0;orthogonalLoop=1;jettySize=auto;html=1;exitX=0.5;exitY=1;exitDx=0;exitDy=0;" parent="1" source="VhQ2WMgpOjCBO5-XnIku-36" target="VhQ2WMgpOjCBO5-XnIku-43" edge="1">
          <mxGeometry relative="1" as="geometry">
            <mxPoint x="500" y="1630" as="targetPoint" />
          </mxGeometry>
        </mxCell>
        <mxCell id="VhQ2WMgpOjCBO5-XnIku-36" value="&lt;font style=&quot;font-size: 20px;&quot;&gt;s+=ni/k&lt;/font&gt;" style="whiteSpace=wrap;html=1;strokeWidth=2;fontStyle=0;" parent="1" vertex="1">
          <mxGeometry x="525" y="1486" width="120" height="60" as="geometry" />
        </mxCell>
        <mxCell id="VhQ2WMgpOjCBO5-XnIku-38" value="true" style="text;html=1;align=center;verticalAlign=middle;resizable=0;points=[];autosize=1;strokeColor=none;fillColor=none;" parent="1" vertex="1">
          <mxGeometry x="330" y="1410" width="40" height="30" as="geometry" />
        </mxCell>
        <mxCell id="VhQ2WMgpOjCBO5-XnIku-39" value="true" style="text;html=1;align=center;verticalAlign=middle;resizable=0;points=[];autosize=1;strokeColor=none;fillColor=none;" parent="1" vertex="1">
          <mxGeometry x="130" y="1480" width="40" height="30" as="geometry" />
        </mxCell>
        <mxCell id="VhQ2WMgpOjCBO5-XnIku-45" value="" style="edgeStyle=orthogonalEdgeStyle;rounded=0;orthogonalLoop=1;jettySize=auto;html=1;" parent="1" source="VhQ2WMgpOjCBO5-XnIku-43" target="VhQ2WMgpOjCBO5-XnIku-44" edge="1">
          <mxGeometry relative="1" as="geometry" />
        </mxCell>
        <mxCell id="VhQ2WMgpOjCBO5-XnIku-43" value="&lt;font style=&quot;font-size: 20px;&quot;&gt;ni=0&lt;/font&gt;" style="rounded=0;whiteSpace=wrap;html=1;" parent="1" vertex="1">
          <mxGeometry x="440" y="1630" width="120" height="60" as="geometry" />
        </mxCell>
        <mxCell id="VhQ2WMgpOjCBO5-XnIku-46" style="edgeStyle=orthogonalEdgeStyle;rounded=0;orthogonalLoop=1;jettySize=auto;html=1;exitX=1;exitY=0.5;exitDx=0;exitDy=0;" parent="1" source="VhQ2WMgpOjCBO5-XnIku-44" edge="1">
          <mxGeometry relative="1" as="geometry">
            <mxPoint x="130" y="560" as="targetPoint" />
            <Array as="points">
              <mxPoint x="680" y="1800" />
              <mxPoint x="680" y="560" />
            </Array>
          </mxGeometry>
        </mxCell>
        <mxCell id="VhQ2WMgpOjCBO5-XnIku-44" value="&lt;font style=&quot;font-size: 20px;&quot;&gt;i++&lt;/font&gt;" style="rounded=0;whiteSpace=wrap;html=1;" parent="1" vertex="1">
          <mxGeometry x="440" y="1770" width="120" height="60" as="geometry" />
        </mxCell>
      </root>
    </mxGraphModel>
  </diagram>
</mxfile>
